<svg width="294.807739" height="294.807739" viewBox="0 0 294.808 294.808" fill="none" xmlns="http://www.w3.org/2000/svg" xmlns:xlink="http://www.w3.org/1999/xlink">
	<desc>
			Created with Pixso.
	</desc>
	<defs/>
	<path d="M161.89 191.5L137.7 210.91C134.62 213.12 131.55 215.08 128.11 216.43C128.11 214.22 127.99 211.77 127.62 209.43C126.27 199.11 121.6 189.53 113.37 181.3C105.02 172.95 94.83 168.04 84.38 166.68C81.93 166.56 79.47 166.32 77.01 166.56C78.37 162.75 80.45 159.19 83.03 156.24L102.2 132.04C133.89 92.37 198.25 44.71 245.3 25.91C252.55 23.21 259.55 25.18 263.97 29.72C268.64 34.27 270.85 41.27 267.9 48.39C248.99 95.56 201.57 159.68 161.89 191.5Z" stroke="#F4F4F4" stroke-opacity="1.000000" stroke-width="2.000000" stroke-linejoin="round"/>
	<path d="M113.25 252.67C105.76 260.16 95.56 265.32 83.4 266.92L53.18 270.24C36.72 272.08 22.6 258.07 24.56 241.37L27.88 211.15C30.83 184.25 53.31 167.05 77.14 166.56C79.59 166.44 82.17 166.56 84.51 166.69C94.95 168.04 105.14 172.83 113.5 181.3C121.73 189.53 126.39 199.11 127.75 209.43C127.87 211.77 128.11 214.1 128.11 216.43C128.11 229.95 122.96 242.84 113.25 252.67Z" stroke="#F4F4F4" stroke-opacity="1.000000" stroke-width="2.000000" stroke-linejoin="round"/>
	<path d="M174.91 177.74C174.91 145.68 148.87 119.64 116.81 119.64" stroke="#F4F4F4" stroke-opacity="1.000000" stroke-width="2.000000" stroke-linejoin="round" stroke-linecap="round"/>
	<g opacity="0.000000">
		<path d="M294.8 0L0 0L0 294.8L294.8 294.8L294.8 0ZM2 292.8L2 2L292.8 2L292.8 292.8L2 292.8Z" fill="#F4F4F4" fill-opacity="1.000000" fill-rule="evenodd"/>
	</g>
</svg>
